<svg width="37" height="11" viewBox="0 0 37 11" fill="none" xmlns="http://www.w3.org/2000/svg">
<path fill-rule="evenodd" clip-rule="evenodd" d="M12.1213 10.655C12.9266 10.655 13.7836 10.5068 14.6535 10.1276C14.7224 10.1014 14.7353 10.0709 14.7353 10.0056C14.7095 9.76148 14.6793 9.40844 14.6793 9.13822V0.944264C14.6793 0.891963 14.6793 0.865811 14.6148 0.865811H13.1549C13.0989 0.865811 13.073 0.891963 13.073 0.961698V3.73805C12.8448 3.7119 12.6855 3.69883 12.496 3.69883C10.1404 3.69883 8.69341 5.27224 8.69341 7.23792C8.69341 9.51741 10.1791 10.655 12.1213 10.655ZM13.073 9.13822C12.8319 9.21667 12.5649 9.24718 12.2936 9.24718C11.2256 9.24718 10.3514 8.63699 10.3514 7.15511C10.3514 5.8432 11.2514 5.06739 12.4443 5.06739C12.6855 5.06739 12.8965 5.09354 13.073 5.16328V9.13822ZM5.6474 8.17498L6.42686 10.437C6.4527 10.4937 6.49145 10.5198 6.56036 10.5198H8.05899C8.14082 10.5198 8.15374 10.4806 8.14082 10.3978L5.0445 1.69391C5.03157 1.62417 5.01865 1.6111 4.94975 1.6111H3.08937C3.0377 1.6111 3.00755 1.65033 3.00755 1.70699C2.98171 2.16463 2.94296 2.3041 2.88697 2.43921L0.12655 10.3847C0.113629 10.4806 0.14378 10.5198 0.221293 10.5198H1.56059C1.64242 10.5198 1.68117 10.4937 1.71132 10.4109L2.44772 8.17498H5.6474ZM2.87406 6.69745C2.92791 6.53278 2.98405 6.36193 3.04142 6.18733C3.4153 5.04955 3.8415 3.75255 4.02818 2.96659H4.0411C4.22923 3.63608 4.59695 4.76864 4.89721 5.6934C5.02309 6.08108 5.1371 6.43224 5.22106 6.69745H2.87406ZM16.137 7.18561C16.137 5.25916 17.3816 3.69882 19.3927 3.69882C21.4555 3.69882 22.5794 5.28531 22.5794 7.14202C22.5794 9.24717 21.253 10.655 19.3625 10.655C17.1275 10.655 16.137 8.90721 16.137 7.18561ZM20.9301 7.18561C20.9301 6.05676 20.4477 5.06738 19.3109 5.06738C18.4108 5.06738 17.7691 5.86934 17.7691 7.1551C17.7691 8.40598 18.372 9.27332 19.3927 9.27332C20.2195 9.27332 20.9301 8.58032 20.9301 7.18561ZM24.0887 0.865811C24.0328 0.865811 23.994 0.891963 23.994 0.961698V10.2366C23.994 10.2758 24.0328 10.3455 24.0887 10.3586C24.7304 10.5591 25.4022 10.655 26.0955 10.655C28.0808 10.655 30.0101 9.40844 30.0101 6.89796C30.0101 5.08047 28.7784 3.69883 26.8492 3.69883C26.4056 3.69883 25.9922 3.76856 25.6304 3.8906L25.6132 0.974773C25.6132 0.878887 25.5874 0.865811 25.4926 0.865811H24.0887ZM28.3607 7.06358C28.3607 8.56726 27.3444 9.27333 26.2463 9.27333C26.018 9.27333 25.8156 9.26025 25.6304 9.2036V5.24609C25.8414 5.16328 26.0955 5.09354 26.5649 5.09354C27.6243 5.09354 28.3607 5.77347 28.3607 7.06358ZM36.8364 7.49506C36.6512 7.53864 36.1129 7.55172 35.4583 7.55172H32.7367C32.7754 8.49751 33.3955 9.26025 34.7607 9.26025C35.3636 9.26025 35.9148 9.15128 36.423 8.93336C36.4617 8.90721 36.5005 8.92028 36.5005 8.98566V10.1145C36.5005 10.193 36.4746 10.2365 36.423 10.2627C35.9148 10.5068 35.3248 10.655 34.4119 10.655C31.9744 10.655 31.1045 8.92028 31.1045 7.25098C31.1045 5.36812 32.2285 3.69882 34.2525 3.69882C36.2335 3.69882 37 5.27223 37 6.56234C37 6.94153 36.9828 7.25098 36.944 7.39917C36.9311 7.45583 36.9053 7.48198 36.8364 7.49506ZM34.1836 5.00201C33.2577 5.00201 32.8443 5.72116 32.7366 6.38365H34.7348H34.7349C35.243 6.38365 35.4153 6.38365 35.4712 6.37057V6.26161C35.4712 5.86934 35.2042 5.00201 34.1836 5.00201Z" fill="#E73D1C"/>
</svg>
